<svg width="26" height="18" viewBox="0 0 26 18" fill="none" xmlns="http://www.w3.org/2000/svg">
<path d="M17.8986 3.77283C17.7322 3.27379 18.1856 2.92771 18.5473 2.64889C18.8204 2.43838 19.1197 2.24716 19.4367 2.10976C19.5346 2.06734 19.7413 1.96967 19.8632 2.00925C20.0079 2.05625 19.6054 2.56357 19.5738 2.60625C19.228 3.07306 18.8416 3.51799 18.5214 4.0028C18.5044 4.02866 18.3372 4.2522 18.4194 4.31196C18.5247 4.38856 18.7956 4.19187 18.8519 4.1551C19.4364 3.77326 19.9296 3.25705 20.4632 2.81032C20.5177 2.76472 20.7019 2.57261 20.7952 2.55447C20.892 2.53565 20.691 2.72259 20.6277 2.79814C20.0021 3.54485 19.3375 4.26516 18.6783 4.98206C18.4052 5.27901 18.1259 5.57027 17.8574 5.87147C17.7613 5.97931 17.5813 6.14337 17.53 6.29181C17.5085 6.35396 17.6662 6.27726 17.7204 6.24003C17.9698 6.0687 18.2011 5.86823 18.4346 5.67653C19.1442 5.094 19.8552 4.48186 20.6764 4.05915C20.689 4.05266 21.4544 3.69818 21.281 3.98909C21.1933 4.13638 21.0322 4.25383 20.9049 4.3607C20.5401 4.667 20.1683 4.96576 19.7992 5.26686C18.9304 5.97563 18.054 6.68187 17.1432 7.33656C17.1091 7.36105 17.0746 7.38503 17.0396 7.40814C16.9785 7.44845 16.9962 7.43128 17.0381 7.39595C17.2034 7.25631 17.3768 7.1242 17.5483 6.99237C18.5652 6.21052 19.6312 5.5099 20.7663 4.91048C21.5004 4.52282 22.2543 4.17619 23.0355 3.89467C23.1099 3.86787 23.2977 3.76464 23.2655 3.8368C23.2266 3.92375 23.0351 4.03978 22.9715 4.08504C22.3346 4.53844 21.6026 4.87405 20.9201 5.25163C20.5428 5.46037 20.1672 5.67196 19.8023 5.90193C19.717 5.95564 19.4902 6.10317 19.3971 6.17606C19.3688 6.1983 19.3036 6.27238 19.3393 6.26744C19.5635 6.23643 19.8456 6.05199 20.0337 5.95523C20.5033 5.7138 20.9647 5.45696 21.4349 5.2166C21.9023 4.9776 22.376 4.75103 22.8527 4.53127C23.4 4.27899 23.0119 4.46011 23.4604 4.25714C23.538 4.22203 23.6322 4.20474 23.6873 4.13987C23.7376 4.08069 23.5311 4.12989 23.4543 4.14139C23.2542 4.17136 23.0558 4.20321 22.8543 4.22363C22.233 4.2866 21.6319 4.3851 21.0237 4.52822C20.8493 4.56926 20.3603 4.69763 20.78 4.45512C21.1679 4.231 21.7083 3.89287 22.175 3.91295C22.6263 3.93236 22.0112 4.56505 21.9253 4.65006C21.6914 4.88135 21.4347 5.09041 21.1897 5.3095C20.9237 5.54731 20.5706 5.80545 20.4008 6.12885C20.1372 6.63057 21.3419 6.32817 21.4775 6.30095C21.6255 6.27124 23.4381 5.79759 23.433 6.1121C23.4301 6.29087 23.0784 6.47226 22.9731 6.53396C22.5976 6.75378 22.1919 6.9241 21.7882 7.08375C20.8537 7.45327 19.8523 7.69388 18.9418 8.11936C17.6827 8.70772 21.6116 7.34383 22.9319 6.91013C22.9833 6.89325 24.0353 6.62017 23.8259 6.45629C23.4314 6.14756 22.796 6.00356 22.3182 5.93544C21.5319 5.82333 20.7335 5.86876 19.9424 5.85624C19.8804 5.85526 19.8182 5.85547 19.7566 5.84863C19.6882 5.84103 19.6232 5.83682 19.7033 5.77248C19.8969 5.61691 20.1891 5.52599 20.4145 5.43895C21.0911 5.17758 21.8016 4.96063 22.5253 4.88155C22.5852 4.87501 22.8761 4.81894 22.9076 4.93942C22.956 5.12513 22.4492 5.39521 22.3547 5.46027C21.6419 5.9511 20.8882 6.41457 20.2789 7.03653C19.9163 7.4067 19.366 8.06258 19.7413 8.60061C20.1299 9.15758 21.0075 9.15773 21.6085 9.16715C21.9541 9.17257 22.2987 9.15496 22.6441 9.15192C22.7067 9.15137 23.1958 9.11429 22.9761 9.31945C22.7678 9.51395 22.4664 9.64228 22.2146 9.76263C21.8537 9.93515 21.4837 10.0887 21.112 10.2363C20.799 10.3605 20.4835 10.4836 20.1617 10.5835C20.1064 10.6007 19.6367 10.7755 19.7916 10.5272C19.9567 10.2623 20.2399 10.0364 20.4663 9.83116C20.8873 9.44939 21.3243 9.0857 21.7699 8.73311C22.1584 8.4257 22.5586 8.13314 22.9456 7.8239C23.1113 7.69152 23.4639 7.47295 23.5091 7.233C23.5736 6.89093 22.8995 6.90068 22.7355 6.91317C21.7317 6.98967 20.7511 7.41943 19.8875 7.91223C19.523 8.12028 19.1688 8.35151 18.8245 8.59147C18.7162 8.66696 18.4779 8.79823 18.4133 8.93566C18.383 9.00019 18.5506 9.00341 18.6204 8.98897C19.0749 8.89493 19.5103 8.66987 19.9287 8.47878C20.389 8.26851 20.8465 8.05171 21.31 7.84827C21.5785 7.73039 21.9523 7.50911 22.2618 7.51474C22.5063 7.51919 22.3382 7.82357 22.2877 7.91833C22.0253 8.41055 21.6461 8.85565 21.3069 9.29508C20.7744 9.98514 20.2159 10.659 19.7444 11.3937C19.6974 11.467 19.5215 11.6852 19.5571 11.7973C19.6105 11.9659 20.1513 11.613 20.1769 11.5978C21.0499 11.0803 21.8259 10.4199 22.7339 9.95757C23.0048 9.81967 23.3094 9.6684 23.6096 9.59967C23.7604 9.56516 23.7599 9.63153 23.6721 9.73065C23.4765 9.95135 23.2235 10.1324 22.9974 10.3185C22.5819 10.6607 22.166 11.0023 21.7547 11.3496C20.9101 12.0625 20.1034 12.818 19.2601 13.532C19.2558 13.5355 19.0491 13.7217 19.2388 13.5502C19.4844 13.3282 19.7195 13.0949 19.9545 12.8618C20.3812 12.4388 20.8062 12.015 21.2445 11.6039C21.7922 11.0902 22.369 10.6018 22.8832 10.0535C23.1205 9.80043 23.3348 9.5353 23.4878 9.22198C23.6136 8.9643 23.6937 8.68415 23.7985 8.41786C23.9022 8.15433 24.0278 7.90058 24.1335 7.6381C24.164 7.56262 24.3108 7.26998 24.1792 7.19644C23.9836 7.08712 23.8086 7.41176 23.7772 7.54672C23.6868 7.93543 23.6973 8.37502 23.6888 8.77118C23.6748 9.43166 23.7551 10.0981 23.7132 10.7571C23.6524 11.7149 23.0669 12.4152 22.3273 12.9761C21.722 13.4351 21.047 13.8464 20.3414 14.132C20.2556 14.1667 20.0121 14.2808 20.0764 14.2142C20.1667 14.1207 20.3728 14.0401 20.4769 13.9827C21.2397 13.5623 22.0201 13.1738 22.772 12.7339C23.1722 12.4998 23.572 12.257 23.9477 11.9846C23.9857 11.9571 24.5427 11.6034 24.3376 11.4729C24.1796 11.3724 23.8712 11.3902 23.701 11.3876C23.3286 11.3821 22.9569 11.4131 22.5893 11.4729C21.7347 11.612 20.8724 11.8691 20.0947 12.2527C20.0371 12.2811 19.6607 12.4387 19.6576 12.5588C19.6537 12.7058 19.952 12.6107 20.0977 12.5908C20.4531 12.5421 20.8018 12.4513 21.1546 12.3882C21.4985 12.3267 21.9522 12.216 22.2938 12.3547C22.796 12.5586 22.0428 12.9619 21.8735 13.0385C20.9524 13.4554 19.9709 13.7075 19.0651 14.1685C19.0227 14.1902 17.9037 14.8094 18.1788 14.9057C18.3318 14.9592 18.537 14.9359 18.6951 14.9483C18.9371 14.9673 19.1745 15.0059 19.4063 15.0793C19.588 15.1368 19.6737 15.2166 19.6195 14.9788C19.5104 14.5 19.373 14.0297 19.286 13.5457C19.0544 12.2578 18.9814 10.91 19.1322 9.60881C19.1401 9.54025 19.2334 9.30527 19.1565 9.41692C18.8306 9.89037 18.3477 10.2773 17.9564 10.6947C17.8487 10.8096 17.6239 10.999 17.5757 11.1653C17.5477 11.2618 17.7819 11.2003 17.8772 11.1683C18.0185 11.1209 19.3824 10.5175 19.4093 10.818C19.4251 10.9942 19.1914 11.2468 19.1002 11.3617C18.8975 11.6171 18.6683 11.8469 18.4499 12.0882C18.3926 12.1514 17.7584 12.8349 18.0661 12.8954C18.3435 12.9498 18.6206 12.8945 18.8854 13.0294C19.1534 13.1658 19.3272 13.425 19.2784 13.7269C19.2423 13.9496 19.0443 14.2557 19.1154 14.4792C19.2483 14.8969 19.9548 14.591 20.1769 14.5097C20.4947 14.3933 20.8022 14.2526 21.115 14.1244C21.2322 14.0763 21.5748 13.9237 21.4745 14.001C21.3423 14.1029 21.1152 14.1748 20.9704 14.2416C20.5418 14.4396 20.1083 14.6264 19.6682 14.7975C19.4255 14.8919 19.1792 14.9733 18.9342 15.061C18.8937 15.0755 18.6653 15.1339 18.6418 15.1965C18.6116 15.2769 18.8165 15.1958 18.8976 15.1676C19.1318 15.0862 19.3528 14.9569 19.5692 14.8386C19.8429 14.6891 20.1142 14.535 20.3749 14.3635C20.46 14.3075 20.7118 14.1447 20.614 14.1731C20.4427 14.2228 20.2534 14.3638 20.1099 14.4579C19.7279 14.7085 19.3606 14.9889 19.0164 15.2894C18.998 15.3055 18.3899 15.8712 18.6052 15.8651C18.7627 15.8607 18.9304 15.7527 19.0575 15.6763C19.3547 15.4976 19.6412 15.2937 19.918 15.0854C20.7123 14.4874 21.4263 13.796 22.1537 13.1208C22.362 12.9274 22.5704 12.7324 22.7933 12.5557C22.7951 12.5544 22.9695 12.3907 22.9487 12.4948C22.7262 13.607 22.2829 14.7225 21.7608 15.725C21.7531 15.7397 21.5015 16.2737 21.4501 16.124C21.324 15.7573 21.5888 15.343 21.773 15.0519C22.1158 14.5099 22.5214 13.9639 23.0248 13.5594C23.0806 13.5146 23.2123 13.4146 23.2259 13.4847C23.2605 13.6635 22.9273 14.0721 22.8543 14.1944C22.4149 14.9301 21.9696 15.6952 21.38 16.3235C21.2082 16.5066 20.6914 17.0002 20.713 16.4438C20.7348 15.8812 20.9372 15.3321 21.176 14.8295C21.1979 14.7834 21.5992 14.0992 21.3222 14.1442C21.1674 14.1693 21.0079 14.2971 20.8881 14.3848C20.6592 14.5524 20.4451 14.7399 20.2348 14.93C20.0336 15.1118 19.8375 15.2992 19.6439 15.489C19.5588 15.5723 19.3131 15.7799 19.4322 15.7768C19.5764 15.773 19.7562 15.637 19.8662 15.5666C20.1543 15.3823 20.425 15.1724 20.713 14.9879C20.8995 14.8684 21.1669 14.6758 21.4075 14.6833C21.6505 14.6909 21.6025 15.027 21.5872 15.1767C21.5687 15.3568 21.4305 15.7538 21.5506 15.926C21.6433 16.0589 22.1431 15.1379 22.1644 15.1021C22.5018 14.5338 22.915 14.0108 23.238 13.4345C23.2574 13.4 23.305 13.1689 23.337 13.1497C23.5218 13.0389 23.7045 13.2485 23.7543 13.4025C23.8873 13.8131 23.7972 14.3302 23.6401 14.7229C23.5495 14.9495 23.4666 14.7853 23.4421 14.6254C23.3899 14.2839 23.3829 13.7645 23.5807 13.4634C23.6335 13.3831 23.6038 13.776 23.6051 13.8183C23.6112 14.0162 23.7037 14.1978 23.765 14.3818" stroke="#3EAE5E" stroke-linecap="round" stroke-linejoin="round"/>
<path d="M4.11582 2.89551C4.11426 2.84795 4.13082 2.61502 4.01414 2.69779C3.75401 2.88233 3.53106 3.27416 3.39133 3.55362C3.34016 3.65597 3.09908 4.16734 3.35885 4.19762C3.45324 4.20862 3.63792 4.14096 3.70909 4.11006C4.02052 3.97482 4.30438 3.7774 4.58752 3.59317C4.94797 3.35864 5.30768 3.1215 5.68626 2.91669C5.75093 2.88171 5.8264 2.79977 5.89104 2.83478C5.90476 2.84221 5.9004 2.86665 5.89528 2.88139C5.87306 2.94528 5.75363 3.12682 5.72863 3.16384C5.42745 3.60986 5.08707 4.03121 4.76264 4.4603C4.46656 4.85189 4.07965 5.26048 3.90681 5.72852C3.82927 5.93849 3.90469 6.06432 4.13842 6.01097C4.70322 5.88205 5.23104 5.48673 5.73428 5.21728C5.80598 5.17888 6.78694 4.59947 6.8641 4.7484C6.90908 4.83524 6.80339 4.93794 6.74547 5.01673C6.52238 5.32017 6.23507 5.57996 5.96166 5.83585C5.40607 6.35582 4.83339 6.85782 4.30224 7.40347C4.16293 7.54658 3.95612 7.76833 3.82772 7.92883C3.77972 7.98883 3.55316 8.23614 3.61447 8.3511C3.7359 8.57878 4.57313 8.03503 4.66378 7.97967C5.37239 7.54694 6.03997 7.03464 6.68756 6.51656C7.0167 6.25325 7.44336 5.96513 7.66344 5.59294C7.84425 5.28715 7.48819 5.17886 7.268 5.07605C6.70846 4.81478 6.38855 4.43454 6.12972 3.88127C5.98845 3.57931 5.92549 3.30137 6.01956 2.97883C6.05097 2.87113 6.03517 2.83358 5.92353 2.89833C5.8887 2.91853 5.62533 3.13349 5.72863 3.10029C6.05721 2.99467 6.37417 2.75777 6.67203 2.59046C6.99462 2.40926 7.93107 1.82077 7.64367 2.0538C7.28575 2.344 6.88205 2.58315 6.51244 2.85879C6.29935 3.0177 6.30165 3.02018 6.10994 3.16808C6.07587 3.19436 5.91315 3.28831 5.88398 3.34178C5.835 3.43159 6.08303 3.29141 6.18479 3.28106C6.30965 3.26836 6.42892 3.28239 6.46866 3.42087C6.5323 3.64264 6.39678 3.87422 6.31472 4.07051C6.2206 4.29568 6.04205 4.66655 6.15514 4.91505C6.25314 5.13039 6.57237 5.1015 6.75676 5.07322C7.08323 5.02316 7.38299 4.88565 7.69592 4.78936C7.99991 4.69582 7.17908 5.16024 6.91776 5.34156C6.37695 5.71679 5.84208 6.10056 5.30919 6.4869C5.16729 6.58978 4.99549 6.74793 4.82478 6.8089C4.62066 6.8818 5.18019 6.55922 5.36992 6.45442C5.753 6.24281 6.15591 6.06653 6.56611 5.91494C6.71609 5.85951 7.17304 5.75712 7.0138 5.74264C6.5182 5.69758 5.96109 5.76367 5.47584 5.8528C4.47849 6.03598 3.43025 6.35864 2.53973 6.85127C2.23797 7.0182 2.54979 6.96515 2.70356 6.92894C3.30548 6.7872 3.88649 6.55572 4.48019 6.38381C4.97932 6.23928 5.54283 6.03986 6.0704 6.04486C6.46045 6.04856 5.68933 6.46581 5.67355 6.47419C5.19232 6.72978 4.6865 6.94015 4.18926 7.16197C4.00526 7.24405 3.68443 7.38655 3.49584 7.47408C3.31851 7.55638 3.07817 7.64324 2.93234 7.78478C2.75707 7.9549 3.41676 7.86795 3.42522 7.86669C3.9582 7.78705 4.47591 7.60605 4.9886 7.44583C5.31902 7.34258 5.64758 7.23355 5.97719 7.12807C6.22495 7.04879 5.51908 7.3747 5.29083 7.4995C4.70028 7.82241 4.11354 8.15573 3.54244 8.5121C3.31125 8.65636 3.13293 8.77036 2.91681 8.93154C2.88233 8.95725 2.50908 9.20114 2.54821 9.3185C2.64129 9.59775 5.4218 8.29077 5.65378 8.1901C6.2081 7.94955 6.76536 7.71175 7.33862 7.51927C7.34371 7.51756 7.78838 7.36137 7.70157 7.48538C7.65357 7.55395 7.56039 7.62168 7.49962 7.66615C7.22139 7.86973 6.91983 8.04187 6.62683 8.22258C5.89578 8.67346 5.17776 9.14214 4.4703 9.6292C4.42809 9.65826 3.46735 10.2617 3.5029 10.3353C3.54736 10.4274 4.7346 9.56856 4.76405 9.54729C5.43328 9.06407 6.10058 8.57699 6.75535 8.07429C7.16908 7.75665 7.69828 7.42636 8.00521 6.99108C8.03315 6.95146 8.11333 6.81169 8.07865 6.751C8.0697 6.73534 8.04538 6.75658 8.04051 6.75947C7.92406 6.82862 7.81421 6.92146 7.71146 7.00803C6.92887 7.66738 6.22771 8.45843 5.60294 9.26625C5.25926 9.71063 4.90991 10.1532 4.58187 10.6093C4.52777 10.6845 4.1533 11.151 4.50843 11.0401C4.95787 10.8996 5.37164 10.5785 5.76394 10.3311C6.46658 9.88803 7.1827 9.41884 7.97696 9.15468C8.09912 9.11405 8.75995 8.93384 8.46419 9.29167C8.08713 9.74786 7.43549 10.0232 6.92624 10.2901C5.51375 11.0304 4.01459 11.66 2.67249 12.5272C2.65459 12.5387 2.60699 12.5788 2.62729 12.5724C2.77679 12.5249 2.93029 12.4223 3.06227 12.345C3.69806 11.9725 4.29526 11.54 4.89822 11.1177C5.41421 10.7564 5.93076 10.3944 6.46019 10.0529C6.7979 9.835 7.15751 9.65321 7.49397 9.43431C7.64236 9.33776 7.76068 9.21063 7.49962 9.16598C6.95516 9.07284 6.33106 9.23896 5.80207 9.34675C5.23533 9.46223 4.67491 9.60823 4.13136 9.80715C3.94843 9.87409 3.29532 10.0484 3.33343 10.3551C3.37938 10.725 4.05401 10.825 4.31637 10.8678C5.04259 10.986 5.78404 10.9657 6.51668 10.9539C6.92322 10.9474 7.41502 10.8903 7.80467 11.0471C8.22079 11.2146 7.72158 11.5408 7.54905 11.6487C6.89206 12.0598 6.15665 12.3407 5.45465 12.6628C4.82975 12.9494 4.19709 13.2419 3.60599 13.5948C3.40876 13.7126 3.2412 13.8715 3.59893 13.8434C4.16917 13.7986 4.7374 13.5709 5.27953 13.4056C5.43533 13.3581 7.97625 12.5907 8.01368 12.8153C8.02501 12.8832 7.45524 13.0586 7.44171 13.0638C6.81518 13.3041 6.19397 13.5594 5.58458 13.8406C5.43559 13.9093 5.15186 14.0454 4.99708 14.123C4.93256 14.1554 4.68043 14.2485 4.64119 14.3377C4.61803 14.3903 5.29516 14.2186 5.31907 14.2106C5.75125 14.0658 6.16803 13.8815 6.59012 13.7107C6.98825 13.5495 7.4097 13.3689 7.84562 13.3519C7.95078 13.3479 8.21489 13.3707 8.07017 13.5384C7.82465 13.8228 7.39431 13.9977 7.08158 14.1908C6.70551 14.4231 6.33428 14.6666 6.01109 14.9704C5.90013 15.0747 5.55197 15.3823 5.88963 15.4364C6.22314 15.4899 6.56356 15.3499 6.87116 15.2444C7.18444 15.1369 7.13363 15.1514 7.43041 15.0452C7.56324 14.9978 7.73609 14.9153 7.88375 14.9167C8.04029 14.9182 7.57583 15.2948 7.56317 15.3051C7.30794 15.5135 7.02264 15.7488 6.70592 15.8573C6.14324 16.05 6.3254 14.9562 6.35285 14.6908C6.41208 14.1182 6.57079 13.4798 6.39522 12.9141C6.22657 12.3707 5.70668 11.8576 5.14819 11.7165C4.8479 11.6407 4.62532 11.8216 4.44064 12.0414C4.15697 12.3789 3.94293 12.7863 3.75993 13.1853C3.71575 13.2816 3.55146 13.5634 3.63 13.6824C3.6691 13.7416 3.80685 13.7796 3.86868 13.801C4.22786 13.9254 4.63018 13.8542 4.98296 13.9903C5.52796 14.2005 4.38202 14.6599 4.24293 14.7218C4.0067 14.827 3.69266 14.9354 3.52408 15.1441C3.39416 15.305 3.60598 15.3554 3.73169 15.3658C4.04621 15.3919 4.36028 15.2976 4.66237 15.2246C4.98814 15.1459 5.31428 15.0701 5.64107 14.9958" stroke="#3EAE5E" stroke-linecap="round" stroke-linejoin="round"/>
<path d="M3.37856 5.46303C3.52586 5.28766 3.71646 5.10867 3.8206 4.90236C3.95342 4.63922 3.51598 4.88228 3.48871 4.89529C3.29153 4.98943 3.10167 5.10492 2.91533 5.2187C2.80893 5.28367 2.66673 5.35273 2.57921 5.44608C2.55075 5.47644 2.65369 5.49751 2.69502 5.49268C2.83924 5.47583 2.97603 5.42902 3.11023 5.37547C3.25526 5.31759 3.39726 5.25154 3.54097 5.19046C3.57344 5.17666 3.78233 5.07001 3.62288 5.18622C3.28545 5.43214 2.94757 5.67715 2.63712 5.95732C2.58364 6.00558 2.01893 6.50132 2.2205 6.59566C2.49039 6.722 2.93973 6.48826 3.20344 6.4276C3.25123 6.41661 3.4316 6.3667 3.34466 6.49116C3.15106 6.76832 2.86001 6.99354 2.63288 7.24248C2.49332 7.39545 1.82702 8.01475 2.04255 8.28191C2.2531 8.54291 2.73893 8.3392 2.99159 8.5333C3.34098 8.8017 2.6369 9.53835 2.48035 9.72525C2.34453 9.88741 2.19405 10.0391 2.06656 10.2082C1.97394 10.3311 2.05862 10.3184 2.16966 10.3184C2.41308 10.3184 2.64737 10.3278 2.6004 10.639C2.54824 10.9845 2.33972 11.2595 2.21061 11.5739C2.13799 11.7507 2.39824 11.6543 2.48177 11.6473C2.67622 11.6311 2.54819 11.9012 2.51425 11.9962" stroke="#3EAE5E" stroke-linecap="round" stroke-linejoin="round"/>
<path d="M18.721 8.3234C19.0219 7.74703 19.3875 7.2167 19.717 6.65729C19.7533 6.59561 20.1742 5.99151 20.0124 5.85621C19.6499 5.55312 18.7785 7.22911 18.689 7.38526C18.4763 7.75626 18.2578 8.13726 18.1087 8.53966C18.0738 8.63392 18.0137 8.8376 18.1757 8.67825C18.7138 8.14904 19.0171 7.35728 19.3789 6.70602" stroke="#3EAE5E" stroke-linecap="round" stroke-linejoin="round"/>
<path d="M1 5.8C1 3.14903 3.14903 1 5.8 1H9V17H5.8C3.14903 17 1 14.851 1 12.2V5.8Z" stroke="black" stroke-width="2"/>
<path d="M25 5.8C25 3.14903 22.851 1 20.2 1H17V17H20.2C22.851 17 25 14.851 25 12.2V5.8Z" stroke="black" stroke-width="2"/>
<path d="M1 8.68C1 5.99175 1 4.64762 1.52317 3.62085C1.98336 2.71767 2.71767 1.98336 3.62085 1.52317C4.64762 1 5.99175 1 8.68 1H17.32C20.0083 1 21.3524 1 22.3792 1.52317C23.2823 1.98336 24.0166 2.71767 24.4768 3.62085C25 4.64762 25 5.99175 25 8.68V9.32C25 12.0083 25 13.3524 24.4768 14.3792C24.0166 15.2823 23.2823 16.0166 22.3792 16.4768C21.3524 17 20.0083 17 17.32 17H8.68C5.99175 17 4.64762 17 3.62085 16.4768C2.71767 16.0166 1.98336 15.2823 1.52317 14.3792C1 13.3524 1 12.0083 1 9.32V8.68Z" stroke="black" stroke-width="2"/>
</svg>
