<svg width="16" height="16" viewBox="0 0 16 16" fill="none" xmlns="http://www.w3.org/2000/svg">
<path d="M8 0C6.41775 0 4.87103 0.469192 3.55544 1.34824C2.23985 2.22729 1.21447 3.47672 0.608967 4.93853C0.00346627 6.40034 -0.15496 8.00887 0.153721 9.56072C0.462403 11.1126 1.22433 12.538 2.34315 13.6569C3.46197 14.7757 4.88743 15.5376 6.43928 15.8463C7.99113 16.155 9.59966 15.9965 11.0615 15.391C12.5233 14.7855 13.7727 13.7602 14.6518 12.4446C15.5308 11.129 16 9.58225 16 8C16 5.87827 15.1571 3.84344 13.6569 2.34314C12.1566 0.842854 10.1217 0 8 0ZM8 14.4516C6.72399 14.4516 5.47664 14.0732 4.41568 13.3643C3.35472 12.6554 2.5278 11.6478 2.03949 10.4689C1.55118 9.29004 1.42342 7.99284 1.67236 6.74135C1.92129 5.48986 2.53575 4.34029 3.43802 3.43802C4.3403 2.53575 5.48986 1.92129 6.74135 1.67235C7.99285 1.42342 9.29005 1.55118 10.4689 2.03949C11.6478 2.52779 12.6554 3.35471 13.3643 4.41567C14.0732 5.47664 14.4516 6.72399 14.4516 8C14.4516 9.71107 13.7719 11.3521 12.562 12.562C11.3521 13.7719 9.71108 14.4516 8 14.4516Z" fill="black"/>
<path d="M7.54934 4.23468C7.57842 3.06811 7.57891 6.57001 7.66893 7.73345C7.69479 8.06761 7.7585 8.39883 7.73225 8.73512C7.70685 9.06047 7.72167 9.34913 7.73752 9.67506C7.74729 9.87584 7.78399 10.0458 7.83426 10.2411C7.87253 10.3899 7.85109 10.5288 7.86767 10.6785C7.87773 10.7693 7.93433 10.819 7.96089 10.8989C7.99382 10.998 7.85215 10.8691 7.82722 10.8372C7.6718 10.6384 7.47418 10.5346 7.28201 10.3769C7.0257 10.1667 6.78919 9.93897 6.5363 9.7262C6.18064 9.42696 5.89495 9.04986 5.52678 8.75981C5.35566 8.62499 5.23684 8.42206 5.06599 8.2819C4.98925 8.21895 4.97292 8.23098 5.05192 8.2819C5.22835 8.39563 5.35513 8.48506 5.49864 8.64694C5.72381 8.90095 5.9625 9.12049 6.15641 9.40172C6.31404 9.63033 6.50129 9.87545 6.71218 10.0577C6.9257 10.2423 7.14522 10.393 7.39105 10.5198C7.49582 10.5738 7.60223 10.6174 7.70938 10.6644C7.82459 10.7149 7.86637 10.8318 7.98551 10.876C8.15635 10.9394 8.25019 11.0867 8.40585 10.9307C8.63004 10.7059 8.83755 10.4661 9.06186 10.2411C9.29734 10.005 9.48492 9.71629 9.73018 9.49342C10.0564 9.19703 10.3369 8.82953 10.6131 8.48823C10.7307 8.3429 10.8311 8.16026 11 8.07557" stroke="black" stroke-width="2" stroke-linecap="round" stroke-linejoin="round"/>
</svg>
