<svg width="16" height="16" viewBox="0 0 16 16" fill="none" xmlns="http://www.w3.org/2000/svg">
<path d="M11.7558 0H4.24421C1.90316 0 0 1.90316 0 4.24421V11.7558C0 14.0968 1.90316 16 4.24421 16H11.7558C14.0968 16 16 14.0968 16 11.7558V4.24421C16 1.90316 14.0968 0 11.7558 0ZM14.4337 11.7558C14.4337 13.2379 13.2211 14.4505 11.7389 14.4505H4.24421C2.76211 14.4505 1.54947 13.2379 1.54947 11.7558V4.24421C1.54947 2.76211 2.76211 1.54947 4.24421 1.54947H11.7558C13.2379 1.54947 14.4505 2.76211 14.4505 4.24421V11.7558H14.4337Z" fill="black"/>
<path d="M6 11C6.15185 10.7964 6.345 10.6282 6.51323 10.4408C6.79561 10.1261 7.06382 9.79509 7.33333 9.46746C7.83121 8.86222 8.38579 8.3322 8.9127 7.75952C9.44203 7.1842 9.90573 6.55096 10.4656 6.01133C10.552 5.92804 10.5537 5.79806 10.5847 5.68498C10.6165 5.56859 10.6995 5.5254 10.7698 5.44201C10.8083 5.39642 10.6561 5.43626 10.5992 5.43626C10.3483 5.43626 10.1063 5.4248 9.85714 5.39026C9.55291 5.34808 9.24583 5.31457 8.94048 5.36151C8.6853 5.40073 8.43589 5.48035 8.17725 5.48802C8.12927 5.48944 7.89104 5.47387 7.86243 5.52827C7.83397 5.58241 8.03069 5.55495 8.03439 5.55415C8.28813 5.4996 8.53637 5.41053 8.78836 5.34713C9.12478 5.26249 9.46913 5.21356 9.80952 5.15161C10.0731 5.10364 10.3362 5.05351 10.6005 5.01072C10.6737 4.99887 10.739 4.98177 10.7857 5.05385C10.8666 5.17872 11 5.2787 11 5.44201C11 5.60535 10.9974 5.7686 10.9974 5.93226C10.9974 6.21166 10.9168 6.47569 10.8571 6.74453C10.7803 7.09058 10.7857 7.48635 10.7857 7.8429C10.7857 8.02341 10.7619 8.19972 10.7619 8.38059C10.7619 8.50327 10.7619 8.62595 10.7619 8.74863C10.7619 8.85691 10.7712 8.89936 10.8095 8.77451" stroke="black" stroke-width="2" stroke-linecap="round" stroke-linejoin="round"/>
</svg>
