<svg width="18" height="18" viewBox="0 0 18 18" fill="none" xmlns="http://www.w3.org/2000/svg">
<path d="M6.29146 6C6.19367 6.12451 6.09039 6.2516 6.02174 6.39731C6.01216 6.41764 5.97396 6.50793 6.02942 6.49747C6.1511 6.47452 6.25361 6.33513 6.38227 6.33513C6.41256 6.33513 6.37577 6.38798 6.37097 6.39684C6.32932 6.47377 6.2836 6.55008 6.24809 6.63038C6.23008 6.67109 6.19161 6.75827 6.23001 6.79937C6.2695 6.84162 6.35795 6.8115 6.40079 6.79557C6.47204 6.76908 6.53848 6.72313 6.61223 6.70443C6.69019 6.68466 6.61784 6.83134 6.60771 6.85633C6.58244 6.91866 6.40116 7.31386 6.56705 7.29019C6.652 7.27807 6.71887 7.1942 6.80288 7.18956C6.87326 7.18566 6.79195 7.368 6.78346 7.39367C6.75305 7.48562 6.71325 7.59281 6.72879 7.69225C6.74099 7.77033 6.80897 7.76296 6.86026 7.72785C6.94511 7.66975 7.02012 7.58515 7.08118 7.50095C7.0974 7.47859 7.15831 7.37365 7.09474 7.44683C7.04278 7.50665 6.99585 7.57924 6.96191 7.6519C6.95871 7.65876 6.95587 7.66581 6.95288 7.67278C6.9479 7.68436 6.94816 7.68468 6.95288 7.67088C6.96843 7.62536 6.98156 7.57926 6.99263 7.53228C7.03245 7.36332 7.06111 7.18914 7.07667 7.01582C7.08728 6.89758 7.07381 6.7921 7.0595 6.67595C7.05587 6.64654 7.04349 6.56846 7.07034 6.54589C7.07546 6.54158 7.11507 6.60376 7.12094 6.60949C7.15214 6.63993 7.18512 6.6648 7.20452 6.70633C7.23945 6.78108 7.22564 6.87984 7.23163 6.96028C7.23906 7.06004 7.26285 7.1572 7.27048 7.25696C7.28066 7.39008 7.26778 7.52257 7.24654 7.6538C7.22522 7.78548 7.20666 7.91844 7.16748 8.04588C7.12407 8.18704 7.0614 8.31825 6.99986 8.45126C6.9158 8.63295 6.88511 8.80164 6.88511 9.00237C6.88511 9.11925 6.88973 9.20839 7.02245 9.20221C7.19752 9.19406 7.37148 9.16198 7.54653 9.15095C7.55212 9.15059 7.65199 9.14327 7.62243 9.16139C7.59494 9.17824 7.55089 9.18349 7.52213 9.18987C7.4364 9.20891 7.35029 9.22569 7.26416 9.24256C7.17832 9.25938 7.09227 9.27665 7.00799 9.30095C6.97227 9.31124 6.91561 9.32336 6.88963 9.35696C6.85021 9.40793 7.05933 9.44269 7.07983 9.44573C7.21104 9.46516 7.34166 9.46835 7.47153 9.49936C7.63988 9.53956 7.80891 9.587 7.97121 9.64936C8.02011 9.66816 8.17969 9.73066 8.14741 9.80981C8.10425 9.91562 7.94926 9.98713 7.8673 10.0481C7.81028 10.0905 7.75486 10.1348 7.70059 10.181C7.67069 10.2065 7.62836 10.2357 7.60616 10.2702C7.56956 10.3272 7.78786 10.284 7.80314 10.2807C7.97333 10.2434 8.13957 10.1888 8.30824 10.1449C8.43494 10.1119 8.5985 10.0513 8.73112 10.0728C8.81057 10.0857 8.76258 10.1343 8.72931 10.1801C8.63384 10.3112 8.52673 10.4416 8.4492 10.5854C8.4134 10.6519 8.31657 10.8455 8.43836 10.8627C8.50624 10.8722 8.56474 10.8475 8.62721 10.8218C8.72369 10.7821 8.81763 10.7362 8.9159 10.7013C9.10334 10.6346 9.30171 10.5715 9.49825 10.5437C9.60517 10.5285 9.65901 10.5517 9.70291 10.6585C9.73982 10.7484 9.75033 10.8993 9.86601 10.9021C9.97007 10.9045 10.0563 10.8069 10.1177 10.7278C10.2066 10.6133 10.3129 10.3124 10.4985 10.3282C10.5834 10.3354 10.583 10.5619 10.5816 10.6196C10.5791 10.7279 10.5367 10.9026 10.6232 10.9899C10.6671 11.0342 10.7598 10.9206 10.7804 10.8911C10.8125 10.8454 10.8492 10.7934 10.8685 10.7397C10.8831 10.6995 10.8795 10.6563 10.888 10.6149C10.8965 10.573 10.9492 10.5233 10.9684 10.5845C10.9933 10.6643 11 10.7358 11 10.819" stroke="black" stroke-linecap="round" stroke-linejoin="round"/>
<path d="M10.0115 11.0983C10.0162 11.0929 10.1018 10.9754 10.1277 11.0047C10.1424 11.0214 10.1334 11.0724 10.1317 11.0906C10.1214 11.199 10.0496 11.2931 10.0304 11.4011C10.021 11.4544 10.0185 11.5097 10.0054 11.5623C9.99221 11.6156 10.0019 11.6069 10.048 11.589C10.0917 11.5719 10.1391 11.5633 10.1817 11.5439C10.2936 11.493 10.3804 11.4014 10.4802 11.3353C10.5068 11.3177 10.679 11.2034 10.7138 11.2464C10.745 11.2849 10.7251 11.3623 10.7233 11.4047C10.7193 11.4984 10.7307 11.5913 10.7557 11.6826C10.7817 11.7771 10.8319 11.9308 10.9286 11.9919C11.0133 12.0454 11.0774 11.8176 11.0934 11.7792C11.1484 11.6463 11.3376 11.0339 11.6161 11.2376C11.7225 11.3154 11.788 11.402 11.8498 11.5095C11.8726 11.5493 11.9374 11.7086 11.9781 11.5949C12.0143 11.4935 11.9986 11.4005 11.9808 11.2986C11.9671 11.2209 11.9282 11.0946 11.9686 11.0236" stroke="black" stroke-linecap="round" stroke-linejoin="round"/>
<path d="M9.02099 12C8.96306 12 9.04196 12 9.05565 12C9.12365 12 9.1902 12 9.26148 12C9.30106 12 9.52511 12 9.57555 12C9.59845 12 9.58468 12 9.58195 12C9.57352 12 9.55154 12 9.57075 12C9.61169 12 9.89191 12 10 12" stroke="black" stroke-linecap="round" stroke-linejoin="round"/>
<path fill-rule="evenodd" clip-rule="evenodd" d="M6.67988 5C6.65781 5.0022 6.63606 5.00687 6.61504 5.01393C5.95486 5.21659 5.48731 5.57501 5.23482 6.04171C4.98232 6.50841 4.95042 7.05543 5.05881 7.61115C5.27561 8.7226 6.04492 9.9172 7.01799 10.9121C7.99105 11.907 9.16438 12.7033 10.2833 12.9353C10.8427 13.0512 11.3998 13.0205 11.8812 12.7686C12.3626 12.5166 12.7456 12.0468 12.9835 11.3751C13.0054 11.3121 13.0055 11.2435 12.9836 11.1805C12.9618 11.1175 12.9193 11.0637 12.8631 11.0278L10.7511 9.70376L10.7464 9.69917C10.736 9.69232 10.7252 9.68614 10.714 9.68065C10.6829 9.66053 10.6484 9.64639 10.6121 9.63899C10.609 9.63894 10.6059 9.63894 10.6029 9.63899C10.5952 9.63715 10.5875 9.63562 10.5797 9.63439C10.5782 9.63438 10.5766 9.63438 10.5751 9.63439C10.5256 9.63152 10.4763 9.64107 10.4315 9.66217C10.4152 9.67 10.3997 9.6793 10.3852 9.68995C10.3756 9.6956 10.3663 9.70178 10.3574 9.70847C10.3542 9.71302 10.3511 9.71767 10.3481 9.7224C10.3365 9.73235 10.3256 9.74318 10.3157 9.7548L9.85253 10.2224C9.01278 9.79988 8.36706 9.09151 7.78683 8.13443L8.21294 7.71312C8.22108 7.70584 8.22881 7.69812 8.2361 7.68998C8.24255 7.68409 8.24873 7.67791 8.25463 7.67146C8.25464 7.66993 8.25464 7.6684 8.25463 7.66687C8.26107 7.66097 8.26725 7.6548 8.27315 7.64835C8.27316 7.64682 8.27316 7.64529 8.27315 7.64376C8.27637 7.63921 8.27946 7.63456 8.28242 7.62983C8.28557 7.62684 8.28866 7.62378 8.29168 7.62065C8.29509 7.61306 8.29818 7.60534 8.30094 7.5975C8.30095 7.59597 8.30095 7.59444 8.30094 7.59291C8.30254 7.58987 8.30408 7.58681 8.30557 7.58372C8.30888 7.57766 8.31197 7.57148 8.31484 7.5652C8.31669 7.55755 8.31823 7.54983 8.31947 7.54206C8.31948 7.54053 8.31948 7.539 8.31947 7.53747C8.32145 7.52829 8.323 7.51902 8.3241 7.50969C8.32411 7.50816 8.32411 7.50663 8.3241 7.5051C8.3244 7.49738 8.3244 7.48965 8.3241 7.48194C8.32411 7.48041 8.32411 7.47888 8.3241 7.47734C8.3244 7.46963 8.3244 7.46192 8.3241 7.45421C8.32415 7.45114 8.32415 7.44808 8.3241 7.44502C8.32287 7.43724 8.32132 7.42952 8.31947 7.42186C8.31948 7.42033 8.31948 7.4188 8.31947 7.41727C8.31486 7.39977 8.30866 7.38272 8.30094 7.36635C8.30095 7.36482 8.30095 7.36329 8.30094 7.36176C8.29564 7.34899 8.28945 7.33662 8.28242 7.32472L8.27778 7.31553C8.27626 7.31399 8.27471 7.31246 8.27315 7.31095L6.95314 5.14427C6.92754 5.1017 6.89164 5.06623 6.84875 5.04115C6.80586 5.01607 6.75734 5.00218 6.70767 5.00074C6.69841 5.00031 6.68914 5.00031 6.67988 5.00074V5ZM6.57335 5.65277L7.65252 7.4352L7.20325 7.87965C7.15751 7.92578 7.1282 7.98565 7.11983 8.05006C7.11147 8.11447 7.1245 8.17984 7.15693 8.23612C7.84253 9.42288 8.65486 10.3461 9.79232 10.8472C9.84683 10.8714 9.90737 10.8787 9.96604 10.8679C10.0247 10.8572 10.0788 10.829 10.1212 10.7871L10.5982 10.3102L12.3397 11.3982C12.1469 11.832 11.8955 12.0903 11.6079 12.2408C11.2748 12.4151 10.868 12.4481 10.4037 12.3519C9.47513 12.1594 8.3535 11.4299 7.43946 10.4954C6.52542 9.56084 5.81809 8.42446 5.63777 7.50001C5.54761 7.03779 5.58744 6.63968 5.75819 6.32408C5.90521 6.05233 6.15495 5.81968 6.57335 5.65277Z" fill="black"/>
<path fill-rule="evenodd" clip-rule="evenodd" d="M8.99994 1C4.58707 1 1 4.58521 1 8.99994C1 10.6042 1.47539 12.1036 2.31358 13.39L1.41892 16.3756C1.39973 16.4397 1.39859 16.5078 1.41563 16.5725C1.43267 16.6372 1.46723 16.6959 1.5155 16.7422C1.56377 16.7886 1.62389 16.8207 1.68923 16.835C1.75457 16.8494 1.82261 16.8454 1.88585 16.8236L4.80813 15.8151C6.02494 16.5661 7.46386 16.9999 8.99994 16.9999C13.4146 16.9999 16.9999 13.4145 16.9999 8.99994C16.9999 4.58532 13.4146 1 8.99994 1V1ZM8.99994 1.72716C13.0217 1.72716 16.2727 4.97818 16.2727 8.99994C16.2727 13.0217 13.0217 16.2727 8.99994 16.2727C7.54205 16.2727 6.18612 15.8451 5.05239 15.1095C5.00603 15.0794 4.95343 15.0603 4.89859 15.0536C4.84374 15.0469 4.78809 15.0528 4.73585 15.0708L2.31915 15.9048L3.05915 13.4352C3.07468 13.3834 3.07845 13.3287 3.07017 13.2752C3.06189 13.2218 3.04178 13.1708 3.01131 13.1261C2.18974 11.9206 1.72716 10.5166 1.72716 8.99994C1.72716 4.97829 4.98009 1.72716 8.99994 1.72716V1.72716Z" fill="black" stroke="black"/>
</svg>
